# xmcd
#
# Track frame offsets:
#	150
#	20745
#	41045
#	57595
#	78000
#	95555
#	115070
#	133245
#	150770
#	167307
#	189540
#	216557
#
# Disc length: 3203 seconds
#
# Revision: 947433017
# Processed by: cddbd v1.5.2PL0 Copyright (c) Steve Scherf et al.
# Submitted via: EZCDAudioConverter 8.0.2.1
#
DISCID=9d0c810c
DTITLE=Lynda Trang Đài - Lynda In China '93
DYEAR=1993
DGENRE=World Pop
TTITLE0=You Are The One
TTITLE1=You're My Love You're My Life
TTITLE2=Caravan Of Life
TTITLE3=If You Love Me
TTITLE4=I Only Wanna Be With You
TTITLE5=Maybe
TTITLE6=You're My Heart You're My Soul
TTITLE7=Supermarket Love Affair
TTITLE8=Touch My Heart
TTITLE9=You're Everything I Own My Love
TTITLE10=Still Loving You
TTITLE11=Pump Up The Jam
EXTD=
EXTT0=
EXTT1=
EXTT2=
EXTT3=
EXTT4=
EXTT5=
EXTT6=
EXTT7=
EXTT8=
EXTT9=
EXTT10=
EXTT11=
PLAYORDER=
